<?xml version="1.0" standalone="no"?>
<!DOCTYPE svg PUBLIC "-//W3C//DTD SVG 20010904//EN"
 "http://www.w3.org/TR/2001/REC-SVG-20010904/DTD/svg10.dtd">
<svg version="1.0" xmlns="http://www.w3.org/2000/svg"
 width="603.000000pt" height="603.000000pt" viewBox="0 0 603.000000 603.000000"
 preserveAspectRatio="xMidYMid meet">

<g transform="translate(0.000000,603.000000) scale(0.100000,-0.100000)"
fill="#000000" stroke="none">
<path d="M2837 4919 c-117 -11 -304 -54 -396 -90 -424 -169 -738 -453 -927
-839 -100 -204 -151 -419 -161 -676 l-6 -140 -76 -34 c-99 -45 -209 -150 -234
-225 -23 -67 -22 -159 4 -215 21 -48 96 -122 142 -141 19 -8 27 -17 23 -28
-26 -80 -41 -118 -51 -131 -34 -43 -97 -176 -119 -254 -32 -110 -34 -207 -5
-319 26 -103 64 -174 148 -279 79 -99 160 -153 301 -201 94 -31 98 -31 285
-31 189 0 191 0 284 32 92 32 159 70 214 121 l29 26 46 -52 c79 -88 194 -153
271 -153 76 0 168 60 197 129 18 43 17 154 -1 206 -8 22 -15 41 -15 42 0 1 69
0 153 -3 83 -3 185 -2 225 3 81 11 79 12 57 -61 -18 -59 -19 -130 -4 -177 24
-72 115 -138 190 -139 86 0 202 61 281 149 50 55 59 59 79 35 30 -37 135 -95
227 -126 97 -33 98 -33 287 -32 187 0 191 0 289 33 107 35 185 80 241 138 62
63 144 195 177 283 29 79 32 94 32 205 -1 98 -5 132 -23 185 -29 84 -62 153
-103 215 -27 42 -67 141 -68 167 0 4 17 16 38 27 78 40 140 134 149 225 13
133 -102 281 -278 357 l-56 24 -6 145 c-11 247 -48 414 -137 613 -133 298
-338 541 -605 718 -98 65 -284 157 -387 193 -206 70 -468 98 -711 75z m376
-114 c64 -11 85 -20 116 -48 21 -19 72 -54 112 -78 100 -58 191 -127 267 -201
66 -65 78 -90 68 -140 -9 -46 9 -99 57 -165 61 -82 179 -292 221 -393 20 -47
45 -103 57 -125 11 -22 35 -104 54 -181 l34 -142 -14 -163 c-13 -145 -33 -277
-51 -322 -3 -8 -34 -22 -70 -31 -171 -43 -310 -139 -384 -266 -32 -54 -53 -76
-114 -118 -41 -29 -77 -52 -81 -52 -3 0 -34 -13 -68 -29 -35 -16 -105 -42
-157 -58 -85 -25 -110 -28 -235 -28 -167 1 -244 19 -397 95 -124 62 -208 126
-265 204 -106 144 -246 226 -456 267 -112 22 -175 23 -266 6 l-64 -12 -35 35
c-28 28 -39 51 -54 113 -45 186 -40 471 13 673 32 125 50 173 124 328 67 140
239 362 349 451 174 141 236 181 372 243 169 76 291 115 432 137 115 17 337
18 435 0z m-1846 -1792 c6 -26 10 -51 7 -54 -2 -4 -18 -9 -36 -13 -38 -7 -88
-52 -88 -78 0 -15 8 -18 44 -18 98 0 196 -63 196 -126 0 -65 -84 -103 -193
-89 -62 9 -93 23 -129 62 -69 73 -63 179 15 257 41 40 141 105 163 106 6 0 16
-21 21 -47z m3356 31 c63 -33 130 -89 158 -133 36 -56 40 -138 10 -188 -43
-69 -172 -110 -268 -84 -46 13 -83 51 -83 86 0 57 104 125 191 125 56 0 62 5
44 40 -13 26 -58 54 -98 62 -10 1 -18 6 -18 11 1 4 1 27 1 52 0 51 10 56 63
29z m-2771 -344 c212 -54 328 -164 328 -308 0 -82 -110 -184 -245 -228 -107
-35 -310 -45 -430 -20 -205 42 -337 160 -321 285 9 67 29 91 74 91 106 0 213
67 233 146 12 46 15 48 84 58 56 8 204 -5 277 -24z m2460 15 c7 -3 21 -28 31
-55 28 -78 131 -140 233 -140 42 0 46 -2 60 -35 71 -170 -97 -324 -384 -353
-234 -24 -435 34 -542 155 -47 54 -57 96 -40 172 10 49 20 64 74 116 76 74
183 120 341 146 50 8 201 4 227 -6z m-702 -500 c0 -2 -13 -26 -28 -52 -15 -26
-36 -70 -46 -98 -28 -77 -39 -80 -32 -8 6 55 43 184 62 214 5 9 44 -40 44 -56z
m-1323 32 c15 -31 50 -163 56 -209 8 -52 -7 -47 -30 9 -10 26 -33 76 -51 110
-31 61 -31 65 -16 88 20 31 28 31 41 2z m-1099 -80 c9 -10 5 -23 -15 -52 -14
-21 -48 -85 -75 -142 -27 -56 -53 -103 -58 -103 -6 0 -10 22 -10 49 0 38 9 67
39 125 43 83 80 135 97 135 6 1 16 -5 22 -12z m3520 -17 c59 -75 94 -154 100
-222 2 -38 2 -68 -2 -68 -4 0 -25 38 -47 84 -22 47 -55 113 -75 147 -34 61
-38 90 -12 88 7 0 23 -13 36 -29z m-2514 -82 l36 -71 -31 -19 c-17 -11 -33
-18 -34 -16 -2 2 -19 37 -38 79 -31 68 -33 77 -18 87 34 23 49 13 85 -60z
m1529 61 c12 -7 23 -13 25 -14 1 -1 -11 -31 -28 -66 -16 -35 -30 -70 -30 -76
0 -18 -21 -16 -50 7 l-25 19 23 48 c28 56 50 93 58 93 3 0 15 -5 27 -11z
m-2390 -46 c21 -7 21 -7 -2 -74 -32 -89 -63 -256 -70 -367 l-6 -103 -58 52
c-32 28 -64 64 -73 81 -14 27 -13 35 12 111 25 78 86 212 128 285 13 24 23 31
35 26 9 -3 24 -9 34 -11z m3285 -94 c64 -128 115 -281 103 -312 -10 -24 -118
-137 -132 -137 -5 0 -7 17 -4 38 9 57 -30 297 -68 415 l-25 77 26 15 c15 8 32
13 37 11 6 -1 34 -49 63 -107z m-2603 58 c8 -13 27 -57 41 -98 23 -63 28 -96
31 -215 6 -177 2 -188 -98 -238 -91 -46 -101 -46 -88 -3 25 84 22 290 -7 499
l-6 46 48 15 c65 20 61 20 79 -6z m1895 2 c42 -13 42 -13 36 -53 -11 -84 -18
-423 -8 -478 5 -33 5 -58 0 -58 -27 0 -138 62 -161 90 l-28 33 3 141 c3 132 5
147 37 231 37 100 48 118 67 111 6 -2 31 -10 54 -17z m-2366 -26 c16 -4 17
-12 12 -52 -14 -107 -27 -401 -22 -468 4 -40 4 -73 1 -73 -23 0 -150 42 -156
52 -31 50 -21 229 21 392 45 172 43 169 88 162 20 -4 45 -10 56 -13z m2873
-63 c44 -141 56 -212 57 -341 1 -89 -3 -130 -12 -141 -10 -12 -119 -48 -147
-48 -3 0 -5 44 -5 98 0 101 -15 362 -26 443 l-6 47 39 10 c69 19 75 15 100
-68z m-2620 -20 c16 -104 15 -275 -2 -398 -8 -57 -17 -108 -20 -113 -4 -5 -33
-9 -65 -9 l-59 0 -7 47 c-7 49 2 439 12 505 6 36 8 37 53 41 78 6 75 8 88 -73z
m2381 65 c18 -15 31 -470 16 -550 -6 -34 -8 -35 -53 -35 -26 0 -55 6 -64 13
-36 26 -57 285 -38 461 7 61 14 113 16 116 4 6 116 1 123 -5z m-1821 -116 c71
-18 160 -107 207 -208 61 -131 60 -233 -5 -266 -37 -20 -55 -19 -108 6 -70 31
-125 82 -180 166 -92 141 -104 259 -31 295 41 21 56 22 117 7z m1228 -3 c47
-20 58 -47 52 -123 -12 -148 -199 -362 -318 -363 -67 0 -109 79 -90 169 30
141 147 290 250 317 60 17 66 17 106 0z"/>
<path d="M2222 3520 c-54 -39 -82 -100 -82 -179 0 -149 127 -235 246 -166 106
62 114 246 15 339 -24 23 -42 30 -83 34 -47 3 -58 0 -96 -28z m108 -50 c45
-45 9 -99 -60 -91 -15 2 -50 37 -50 51 0 4 9 19 21 34 25 31 61 34 89 6z"/>
<path d="M3597 3529 c-57 -30 -89 -86 -95 -167 -7 -101 28 -162 112 -197 125
-52 249 97 201 240 -23 68 -49 102 -95 125 -49 25 -75 25 -123 -1z m83 -59
c54 -54 -25 -125 -82 -73 -23 21 -23 34 3 67 24 31 52 33 79 6z"/>
<path d="M2820 3207 c-13 -7 -29 -25 -34 -40 -21 -58 73 -175 158 -198 22 -6
63 -8 93 -4 46 6 60 13 107 58 67 64 89 121 62 162 -14 22 -24 26 -54 23 -33
-3 -39 -8 -58 -46 -25 -52 -38 -62 -86 -62 -54 0 -67 8 -94 61 -13 27 -28 49
-33 49 -5 0 -15 2 -23 5 -7 3 -24 -1 -38 -8z"/>
<path d="M1665 2616 c-95 -30 -139 -68 -139 -121 0 -43 17 -63 79 -91 69 -33
227 -34 309 -3 143 53 138 163 -11 209 -74 23 -177 25 -238 6z"/>
<path d="M4141 2612 c-70 -26 -104 -52 -115 -91 -12 -41 12 -75 75 -111 37
-21 60 -25 151 -28 80 -3 119 0 156 12 92 31 125 91 85 153 -45 68 -240 104
-352 65z"/>
</g>
</svg>
